<svg width="6355" height="645" viewBox="0 0 6355 645" fill="none" xmlns="http://www.w3.org/2000/svg">
<path d="M60 539.25V6.74997H416.25V91.5H104.25L157.5 36.75V281.25L104.25 237H402.75V321H104.25L157.5 276.75V539.25H60ZM576.059 539.25C547.059 539.25 523.809 531.75 506.309 516.75C488.809 501.75 480.059 477.75 480.059 444.75V6.74997H576.059V435C576.059 445 578.559 452.5 583.559 457.5C589.059 462.5 596.559 465 606.059 465H635.309V539.25H576.059ZM810 548.25C768 548.25 734.25 538.75 708.75 519.75C683.25 500.25 670.5 473.25 670.5 438.75C670.5 404.25 681.25 377.25 702.75 357.75C724.25 338.25 757 324.25 801 315.75L933.75 289.5C933.75 261 927.25 239.75 914.25 225.75C901.25 211.25 882 204 856.5 204C833.5 204 815.25 209.5 801.75 220.5C788.75 231 779.75 246.25 774.75 266.25L677.25 261.75C685.25 219.25 704.75 186.75 735.75 164.25C766.75 141.25 807 129.75 856.5 129.75C913.5 129.75 956.5 144.25 985.5 173.25C1015 201.75 1029.75 242.75 1029.75 296.25V441.75C1029.75 452.25 1031.5 459.5 1035 463.5C1039 467.5 1044.75 469.5 1052.25 469.5H1065V539.25C1062 540.25 1057 541 1050 541.5C1043.5 542 1036.75 542.25 1029.75 542.25C1013.25 542.25 998.5 539.75 985.5 534.75C972.5 529.25 962.5 520 955.5 507C948.5 493.5 945 475.25 945 452.25L953.25 458.25C949.25 475.75 940.5 491.5 927 505.5C914 519 897.5 529.5 877.5 537C857.5 544.5 835 548.25 810 548.25ZM829.5 478.5C851 478.5 869.5 474.25 885 465.75C900.5 457.25 912.5 445.5 921 430.5C929.5 415.5 933.75 397.75 933.75 377.25V354.75L830.25 375.75C808.75 380.25 793.25 387 783.75 396C774.75 404.5 770.25 415.75 770.25 429.75C770.25 445.25 775.25 457.25 785.25 465.75C795.75 474.25 810.5 478.5 829.5 478.5ZM1259.84 539.25C1219.84 539.25 1190.34 530 1171.34 511.5C1152.84 493 1143.59 464 1143.59 424.5V45H1239.59V415.5C1239.59 434 1243.59 447 1251.59 454.5C1259.59 461.5 1272.09 465 1289.09 465H1345.34V539.25H1259.84ZM1080.59 213V138.75H1345.34V213H1080.59ZM1408.24 539.25V138.75H1504.24V539.25H1408.24ZM1406.74 85.5V-3.11136e-05H1506.49V85.5H1406.74ZM1768.83 548.25C1728.83 548.25 1694.08 539.75 1664.58 522.75C1635.08 505.25 1612.08 480.75 1595.58 449.25C1579.58 417.75 1571.58 381 1571.58 339C1571.58 297 1579.58 260.5 1595.58 229.5C1612.08 198 1635.08 173.5 1664.58 156C1694.08 138.5 1728.83 129.75 1768.83 129.75C1802.83 129.75 1833.08 135.75 1859.58 147.75C1886.08 159.75 1907.58 177 1924.08 199.5C1941.08 221.5 1951.58 248.5 1955.58 280.5L1856.58 285.75C1852.58 260.25 1842.58 241 1826.58 228C1811.08 214.5 1791.83 207.75 1768.83 207.75C1737.83 207.75 1713.83 219.5 1696.83 243C1679.83 266 1671.33 298 1671.33 339C1671.33 380.5 1679.83 412.75 1696.83 435.75C1713.83 458.75 1737.83 470.25 1768.83 470.25C1792.33 470.25 1811.83 463.5 1827.33 450C1843.33 436.5 1853.08 415.5 1856.58 387L1955.58 391.5C1951.58 423.5 1941.33 451.25 1924.83 474.75C1908.33 498.25 1886.83 516.5 1860.33 529.5C1833.83 542 1803.33 548.25 1768.83 548.25ZM2189.07 548.25C2149.57 548.25 2114.82 539.75 2084.82 522.75C2055.32 505.25 2032.32 480.75 2015.82 449.25C1999.82 417.75 1991.82 381 1991.82 339C1991.82 296.5 1999.82 259.75 2015.82 228.75C2032.32 197.25 2055.32 173 2084.82 156C2114.82 138.5 2149.57 129.75 2189.07 129.75C2228.57 129.75 2263.07 138.5 2292.57 156C2322.07 173 2344.82 197.25 2360.82 228.75C2377.32 259.75 2385.57 296.5 2385.57 339C2385.57 381 2377.32 417.75 2360.82 449.25C2344.82 480.75 2322.07 505.25 2292.57 522.75C2263.07 539.75 2228.57 548.25 2189.07 548.25ZM2189.07 470.25C2220.07 470.25 2243.82 458.75 2260.32 435.75C2277.32 412.75 2285.82 380.5 2285.82 339C2285.82 298 2277.32 266 2260.32 243C2243.82 219.5 2220.07 207.75 2189.07 207.75C2158.07 207.75 2134.07 219.5 2117.07 243C2100.07 266 2091.57 298 2091.57 339C2091.57 380.5 2100.07 412.75 2117.07 435.75C2134.07 458.75 2158.07 470.25 2189.07 470.25ZM2452.15 539.25V138.75H2539.15L2542.9 251.25L2531.65 246.75C2535.65 218.75 2543.9 196.25 2556.4 179.25C2568.9 162.25 2584.15 149.75 2602.15 141.75C2620.15 133.75 2639.9 129.75 2661.4 129.75C2690.9 129.75 2715.65 136.25 2735.65 149.25C2756.15 162.25 2771.65 180.25 2782.15 203.25C2792.65 225.75 2797.9 252 2797.9 282V539.25H2701.9V312.75C2701.9 290.25 2699.65 271.25 2695.15 255.75C2690.65 240.25 2683.15 228.5 2672.65 220.5C2662.65 212 2649.15 207.75 2632.15 207.75C2606.65 207.75 2586.15 216.75 2570.65 234.75C2555.65 252.75 2548.15 278.75 2548.15 312.75V539.25H2452.15ZM3227.34 547.05C3201.34 547.05 3178.59 540.55 3159.09 527.55C3139.59 514.117 3125.07 496.783 3115.54 475.55L3113.59 539.25H3075.89V77.75H3118.79V255.2C3127.45 236.567 3141.32 220.533 3160.39 207.1C3179.45 193.667 3201.77 186.95 3227.34 186.95C3257.24 186.95 3283.02 194.317 3304.69 209.05C3326.79 223.783 3343.9 244.583 3356.04 271.45C3368.17 298.317 3374.24 330.167 3374.24 367C3374.24 403.833 3368.17 435.683 3356.04 462.55C3343.9 489.417 3326.79 510.217 3304.69 524.95C3283.02 539.683 3257.24 547.05 3227.34 547.05ZM3225.39 506.1C3257.02 506.1 3282.15 493.75 3300.79 469.05C3319.42 443.917 3328.74 409.9 3328.74 367C3328.74 324.1 3319.42 290.3 3300.79 265.6C3282.15 240.467 3257.24 227.9 3226.04 227.9C3203.94 227.9 3184.87 233.75 3168.84 245.45C3152.8 256.717 3140.45 272.75 3131.79 293.55C3123.12 314.35 3118.79 338.833 3118.79 367C3118.79 394.733 3123.12 419.217 3131.79 440.45C3140.45 461.25 3152.59 477.5 3168.19 489.2C3184.22 500.467 3203.29 506.1 3225.39 506.1ZM3446.05 636.75V598.4H3481.15C3495.45 598.4 3505.85 596.017 3512.35 591.25C3519.28 586.917 3524.91 579.117 3529.25 567.85L3542.25 532.75H3526.65L3397.3 194.75H3444.1L3555.25 494.4L3661.2 194.75H3708L3566.3 582.15C3559.36 601.217 3549.61 615.083 3537.05 623.75C3524.91 632.417 3507.36 636.75 3484.4 636.75H3446.05ZM3933.17 539.25V77.75H3996.87L4154.82 491.15L4312.77 77.75H4376.47V539.25H4332.27V153.8L4183.42 539.25H4126.22L3977.37 153.8V539.25H3933.17ZM4569.11 547.05C4534.44 547.05 4506.71 538.817 4485.91 522.35C4465.11 505.45 4454.71 482.7 4454.71 454.1C4454.71 425.5 4463.81 402.967 4482.01 386.5C4500.21 370.033 4526.86 358.55 4561.96 352.05L4689.36 328C4689.36 293.767 4681.99 268.633 4667.26 252.6C4652.53 236.133 4630.21 227.9 4600.31 227.9C4573.88 227.9 4552.86 234.183 4537.26 246.75C4521.66 259.317 4511.26 277.083 4506.06 300.05L4460.56 296.15C4467.06 262.783 4482.23 236.35 4506.06 216.85C4530.33 196.917 4561.74 186.95 4600.31 186.95C4643.21 186.95 4675.93 199.083 4698.46 223.35C4720.99 247.617 4732.26 282.283 4732.26 327.35V471C4732.26 482.7 4733.99 490.717 4737.46 495.05C4741.36 498.95 4747.43 500.9 4755.66 500.9H4766.06V539.25C4764.33 539.683 4761.73 539.9 4758.26 539.9C4755.23 540.333 4751.98 540.55 4748.51 540.55C4735.08 540.55 4723.81 538.167 4714.71 533.4C4706.04 528.633 4699.54 520.833 4695.21 510C4691.31 499.167 4689.36 484.217 4689.36 465.15L4694.56 465.8C4690.66 480.967 4682.64 494.833 4670.51 507.4C4658.81 519.533 4644.08 529.283 4626.31 536.65C4608.54 543.583 4589.48 547.05 4569.11 547.05ZM4573.01 508.7C4596.84 508.7 4617.43 503.933 4634.76 494.4C4652.09 484.867 4665.53 472.083 4675.06 456.05C4684.59 439.583 4689.36 421.167 4689.36 400.8V366.35L4571.06 388.45C4546.36 393.217 4528.16 400.583 4516.46 410.55C4505.19 420.517 4499.56 433.733 4499.56 450.2C4499.56 468.833 4506.06 483.35 4519.06 493.75C4532.06 503.717 4550.04 508.7 4573.01 508.7ZM4951.31 644.55C4927.04 644.55 4904.94 640.217 4885.01 631.55C4865.51 623.317 4849.47 611.617 4836.91 596.45C4824.34 581.283 4816.32 563.733 4812.86 543.8L4857.71 541.2C4861.61 559.833 4871.14 574.783 4886.31 586.05C4901.47 597.75 4923.14 603.6 4951.31 603.6C4984.67 603.6 5010.24 595.8 5028.01 580.2C5046.21 564.6 5055.31 541.85 5055.31 511.95V452.8C5046.64 473.6 5032.77 490.283 5013.71 502.85C4994.64 515.417 4972.76 521.7 4948.06 521.7C4919.02 521.7 4893.24 514.767 4870.71 500.9C4848.61 486.6 4831.27 466.883 4818.71 441.75C4806.57 416.617 4800.51 387.367 4800.51 354C4800.51 320.633 4806.57 291.6 4818.71 266.9C4831.27 241.767 4848.39 222.267 4870.06 208.4C4892.16 194.1 4917.51 186.95 4946.11 186.95C4972.54 186.95 4995.51 193.667 5015.01 207.1C5034.94 220.1 5049.02 237.433 5057.26 259.1V194.75H5098.21V511.95C5098.21 539.25 5092.36 562.867 5080.66 582.8C5068.96 602.733 5052.06 617.9 5029.96 628.3C5008.29 639.133 4982.07 644.55 4951.31 644.55ZM4950.01 480.75C4981.64 480.75 5006.99 469.483 5026.06 446.95C5045.56 423.983 5055.31 393 5055.31 354C5055.74 328.867 5051.62 306.983 5042.96 288.35C5034.29 269.283 5021.94 254.55 5005.91 244.15C4989.87 233.317 4971.24 227.9 4950.01 227.9C4917.51 227.9 4891.94 239.383 4873.31 262.35C4854.67 284.883 4845.36 315.433 4845.36 354C4845.36 393 4854.67 423.983 4873.31 446.95C4892.37 469.483 4917.94 480.75 4950.01 480.75ZM5198.26 539.25V194.75H5237.26L5239.21 285.1L5234.01 281.2C5237.48 259.967 5244.63 242.417 5255.46 228.55C5266.73 214.683 5280.38 204.283 5296.41 197.35C5312.45 190.417 5329.78 186.95 5348.41 186.95C5374.85 186.95 5396.51 192.8 5413.41 204.5C5430.75 216.2 5443.53 232.017 5451.76 251.95C5460 271.45 5464.11 293.333 5464.11 317.6V539.25H5421.21V333.2C5421.21 310.667 5418.4 291.383 5412.76 275.35C5407.56 259.317 5398.9 246.967 5386.76 238.3C5374.63 229.633 5358.81 225.3 5339.31 225.3C5309.85 225.3 5286.01 234.833 5267.81 253.9C5250.05 272.967 5241.16 299.4 5241.16 333.2V539.25H5198.26ZM5558.02 539.25V194.75H5600.92V539.25H5558.02ZM5556.72 137.55V79.7H5602.22V137.55H5556.72ZM5714.23 539.25V159C5714.23 134.3 5721.16 114.583 5735.03 99.85C5748.89 85.1166 5770.34 77.75 5799.38 77.75H5848.78V116.1H5802.63C5787.03 116.1 5775.54 120.217 5768.18 128.45C5760.81 136.25 5757.13 147.517 5757.13 162.25V539.25H5714.23ZM5665.48 233.1V194.75H5845.53V233.1H5665.48ZM5920.28 539.25V194.75H5963.18V539.25H5920.28ZM5918.98 137.55V79.7H5964.48V137.55H5918.98ZM6186.66 547.05C6154.59 547.05 6127.08 539.467 6104.11 524.3C6081.14 508.7 6063.38 487.467 6050.81 460.6C6038.68 433.3 6032.61 402.1 6032.61 367C6032.61 331.9 6038.68 300.917 6050.81 274.05C6063.38 246.75 6081.14 225.517 6104.11 210.35C6127.08 194.75 6154.59 186.95 6186.66 186.95C6213.09 186.95 6236.28 191.717 6256.21 201.25C6276.14 210.783 6292.39 224.433 6304.96 242.2C6317.53 259.967 6325.98 280.983 6330.31 305.25L6285.46 307.85C6280.26 282.283 6268.99 262.567 6251.66 248.7C6234.76 234.833 6213.09 227.9 6186.66 227.9C6152.86 227.9 6126.21 240.467 6106.71 265.6C6087.21 290.3 6077.46 324.1 6077.46 367C6077.46 409.9 6087.21 443.917 6106.71 469.05C6126.21 493.75 6152.86 506.1 6186.66 506.1C6213.09 506.1 6234.98 498.733 6252.31 484C6270.08 468.833 6281.34 447.167 6286.11 419L6330.96 422.25C6326.63 447.383 6317.96 469.267 6304.96 487.9C6292.39 506.533 6276.14 521.05 6256.21 531.45C6236.28 541.85 6213.09 547.05 6186.66 547.05Z" fill="white"/>
</svg>
